<!DOCTYPE svg PUBLIC "-//W3C//DTD SVG 1.1//EN" "http://www.w3.org/Graphics/SVG/1.1/DTD/svg11.dtd">
<!-- Uploaded to: SVG Repo, www.svgrepo.com, Transformed by: SVG Repo Mixer Tools -->
<svg width="800px" height="800px" viewBox="0 0 48 48" xmlns="http://www.w3.org/2000/svg" fill="#1A7DCE">
<g id="SVGRepo_bgCarrier" stroke-width="0"/>
<g id="SVGRepo_tracerCarrier" stroke-linecap="round" stroke-linejoin="round"/>
<g id="SVGRepo_iconCarrier"> <g id="Layer_2" data-name="Layer 2"> <g id="invisible_box" data-name="invisible box"> <rect width="48" height="48" fill="none"/> </g> <g id="Health_Icons" data-name="Health Icons"> <g> <path d="M6,18a2,2,0,0,0,2-2V8h8a2,2,0,0,0,0-4H8A4,4,0,0,0,4,8v8A2,2,0,0,0,6,18Z"/> <path d="M40,4H32a2,2,0,0,0,0,4h8v8a2,2,0,0,0,4,0V8A4,4,0,0,0,40,4Z"/> <path d="M42,30a2,2,0,0,0-2,2v8H32a2,2,0,0,0,0,4h8a4,4,0,0,0,4-4V32A2,2,0,0,0,42,30Z"/> <path d="M16,40H8V32a2,2,0,0,0-4,0v8a4,4,0,0,0,4,4h8a2,2,0,0,0,0-4Z"/> <path d="M42,22H6a2,2,0,0,0,0,4H42a2,2,0,0,0,0-4Z"/> </g> </g> </g> </g>
</svg>